<?xml version="1.0" encoding="UTF-8" standalone="no"?>
<!-- Created with Inkscape (http://www.inkscape.org/) -->

<svg
   width="602.74408"
   height="312.4469"
   viewBox="0 0 159.47604 82.66824"
   version="1.1"
   id="svg1"
   inkscape:version="1.4.2 (ebf0e940, 2025-05-08)"
   sodipodi:docname="Logo_KarperLab_v1.0.svg"
   xml:space="preserve"
   inkscape:export-filename="Logo_KarperLab_v0.7.png"
   inkscape:export-xdpi="96"
   inkscape:export-ydpi="96"
   xmlns:inkscape="http://www.inkscape.org/namespaces/inkscape"
   xmlns:sodipodi="http://sodipodi.sourceforge.net/DTD/sodipodi-0.dtd"
   xmlns="http://www.w3.org/2000/svg"
   xmlns:svg="http://www.w3.org/2000/svg"><sodipodi:namedview
     id="namedview1"
     pagecolor="#ffffff"
     bordercolor="#000000"
     borderopacity="0.01176471"
     inkscape:showpageshadow="2"
     inkscape:pageopacity="0.0"
     inkscape:pagecheckerboard="0"
     inkscape:deskcolor="#525252"
     inkscape:document-units="px"
     inkscape:zoom="1.0850625"
     inkscape:cx="439.60601"
     inkscape:cy="349.28864"
     inkscape:window-width="1856"
     inkscape:window-height="1007"
     inkscape:window-x="64"
     inkscape:window-y="30"
     inkscape:window-maximized="0"
     inkscape:current-layer="layer1"
     showguides="true"
     inkscape:export-bgcolor="#ffffff00"
     showgrid="false"><inkscape:grid
       id="grid1"
       units="px"
       originx="-68.520362"
       originy="-63.665878"
       spacingx="0.26458333"
       spacingy="0.26458333"
       empcolor="#0099e5"
       empopacity="0.30196078"
       color="#0099e5"
       opacity="0.14901961"
       empspacing="5"
       enabled="true"
       visible="false" /><inkscape:page
       x="0"
       y="0"
       width="159.47604"
       height="82.668243"
       id="page2"
       margin="0"
       bleed="0" /></sodipodi:namedview><defs
     id="defs1"><inkscape:path-effect
       effect="bend_path"
       id="path-effect9"
       is_visible="true"
       lpeversion="1"
       bendpath="m 102.12551,131.87646 c 14.80358,3.44896 29.98737,0.82334 50.03918,-5.37666 12.32764,-3.8117 26.97862,-10.43262 45.63452,-18.73435"
       prop_scale="1"
       scale_y_rel="false"
       vertical="false"
       hide_knot="false"
       bendpath-nodetypes="csc" /><linearGradient
       id="linearGradient82"
       inkscape:swatch="gradient"><stop
         style="stop-color:#1b1516;stop-opacity:1;"
         offset="0"
         id="stop82" /><stop
         style="stop-color:#17333d;stop-opacity:1;"
         offset="0.5"
         id="stop86" /></linearGradient><inkscape:path-effect
       effect="fillet_chamfer"
       id="path-effect79-3"
       is_visible="true"
       lpeversion="1"
       nodesatellites_param="F,0,0,1,0,0,0,1 @ F,0,0,1,0,0,0,1 @ F,0,0,1,0,22.351492,0,1 @ F,0,0,1,0,0,0,1"
       radius="0"
       unit="px"
       method="auto"
       mode="F"
       chamfer_steps="1"
       flexible="false"
       use_knot_distance="true"
       apply_no_radius="true"
       apply_with_radius="true"
       only_selected="false"
       hide_knots="false" /></defs><g
     inkscape:label="Laag 1"
     inkscape:groupmode="layer"
     id="layer1"
     transform="translate(-68.520361,-63.665879)"><path
       id="path6"
       style="baseline-shift:baseline;display:inline;overflow:visible;opacity:1;vector-effect:none;fill:#000000;fill-opacity:1;stroke-width:0.90743;stroke-linecap:square;stroke-linejoin:round;stroke-miterlimit:3.8;enable-background:accumulate;stop-color:#000000;stop-opacity:1"
       inkscape:label="Lood body"
       d="m 114.0504,63.675662 c -7.31165,-0.114607 -14.105021,0.771879 -20.034435,2.978113 -14.163688,5.270066 -25.4956,22.838453 -25.495601,38.299475 0,15.46101 11.351939,32.97255 25.495601,38.29896 31.489075,11.85859 87.667735,-13.30508 116.186705,-28.04325 2.55698,-1.32141 4.45464,-2.91967 5.69216,-4.65243 h 6.51846 c 3.04994,0 5.58313,-2.47423 5.58313,-5.55677 0,-3.08255 -2.53319,-5.556773 -5.58313,-5.556773 h -7.21506 c -1.19632,-1.381155 -2.83314,-2.658757 -4.91133,-3.75636 -23.12709,-12.214713 -64.55268,-31.51434 -96.2365,-32.010965 z m 0.12351,6.459554 c 27.66419,0.418995 63.83491,16.701786 84.02794,27.007137 8.58351,4.380527 8.54873,12.165357 -0.0734,16.470837 -24.90085,12.43434 -73.95234,33.66442 -101.446517,23.65954 -12.349307,-4.49381 -22.261174,-19.26805 -22.261174,-32.31224 10e-7,-13.044207 9.894382,-27.865982 22.261174,-32.312249 5.177177,-1.861363 11.107907,-2.609716 17.491957,-2.513025 z m 102.5865,31.643554 h 5.65288 c 1.87513,0 3.3073,1.44098 3.3073,3.22099 0,1.78 -1.43218,3.22099 -3.3073,3.22099 h -5.27461 c 0.76929,-2.1229 0.64324,-4.34475 -0.37827,-6.44198 z"
       inkscape:export-filename="Logo_KarperLab_v1.0_crop.svg"
       inkscape:export-xdpi="96"
       inkscape:export-ydpi="96" /><path
       id="path77"
       style="display:inline;opacity:1;mix-blend-mode:normal;fill:#ffffff;fill-opacity:1;stroke-width:2.42321;stroke-linecap:round;stroke-linejoin:round;stroke-dasharray:none"
       d="m 41.641713,105.31234 c 10e-7,-16.819153 12.650381,-35.930556 28.462289,-41.663561 35.303568,-12.800197 98.024628,15.228872 129.801088,31.582955 10.97468,5.648236 10.93029,15.685776 -0.0937,21.237256 -31.83768,16.0328 -94.5539,43.40718 -129.707348,30.50691 C 54.31445,141.1816 41.641713,122.13149 41.641713,105.31234 Z"
       sodipodi:nodetypes="sscss"
       transform="matrix(0.78259498,0,0,0.77602823,41.833669,23.256315)"
       inkscape:label="Lood face"
       inkscape:original-d="m 41.641713,105.31234 c 10e-7,-16.819153 12.650381,-35.930556 28.462289,-41.663561 48.662748,-17.643903 149.419008,42.288231 149.419008,42.288231 0,0 -100.93007,58.83289 -149.419008,41.03889 C 54.31445,141.1816 41.641713,122.13149 41.641713,105.31234 Z"
       inkscape:path-effect="#path-effect79-3" /><path
       d="m 100.59999,137.98527 2.87739,-12.25823 c 0.67705,0.16242 1.35908,0.30918 2.04556,0.4409 l -1.03293,5.44856 c 0.0486,0.009 0.0973,0.0184 0.14596,0.0275 1.64361,-1.57311 3.1645,-3.21588 4.57262,-4.91446 0.84118,0.0965 1.68743,0.17285 2.53786,0.23016 -1.37486,1.7888 -2.86323,3.5262 -4.47581,5.19725 1.05647,2.48254 2.28471,4.93864 3.66458,7.35706 -1.03722,-0.0725 -2.07501,-0.16814 -3.11244,-0.28789 -0.92658,-1.8398 -1.7656,-3.69719 -2.5091,-5.56771 -0.47914,0.45856 -0.96848,0.91143 -1.46826,1.35826 l -0.66504,3.50798 c -0.86149,-0.16175 -1.7218,-0.34134 -2.58039,-0.53938 z m 15.0118,1.7031 c -0.92384,-0.005 -1.84921,-0.027 -2.77548,-0.067 1.58664,-4.13096 2.92457,-8.31861 4.03776,-12.53775 0.92984,-0.0155 1.86242,-0.0507 2.79658,-0.10427 1.41989,4.12715 3.05721,8.21323 4.88351,12.23851 -0.90425,0.0984 -1.81214,0.18216 -2.72302,0.25058 -1.25519,-3.15759 -2.39655,-6.34375 -3.41246,-9.55034 -0.0287,0.001 -0.0575,0.002 -0.0862,0.003 -0.7795,3.2729 -1.68311,6.53198 -2.72067,9.76704 z m -0.13489,-4.95454 c 2.04147,0.0129 4.08282,-0.0633 6.11546,-0.2186 l 0.15827,2.07494 c -2.08606,0.15978 -4.18431,0.2375 -6.28616,0.2231 z m 11.72278,4.15666 -1.68493,-12.47231 c 1.36813,-0.18217 2.73692,-0.39724 4.1067,-0.64102 0.78873,-0.14036 1.4913,-0.10306 2.1148,0.118 0.62801,0.22007 1.15532,0.59958 1.58078,1.14333 0.42881,0.53694 0.73343,1.21201 0.90642,2.02695 0.17306,0.81532 0.16732,1.55011 -0.0244,2.20577 -0.19154,0.6552 -0.55919,1.20229 -1.10494,1.63669 -0.54167,0.42775 -1.24692,0.72263 -2.11059,0.87578 -0.98668,0.17496 -1.97638,0.3373 -2.96919,0.48576 l -0.3153,-2.11295 c 0.84646,-0.12626 1.69125,-0.26309 2.53443,-0.40965 0.44869,-0.078 0.80598,-0.21428 1.07033,-0.40596 0.26941,-0.19269 0.44895,-0.43857 0.53909,-0.73642 0.0951,-0.29892 0.10252,-0.65269 0.024,-1.06182 -0.0795,-0.4145 -0.2184,-0.74616 -0.41473,-0.99517 -0.19267,-0.25556 -0.44543,-0.42826 -0.75809,-0.51942 -0.31383,-0.0968 -0.68636,-0.1064 -1.11978,-0.0311 -0.50722,0.0881 -1.01459,0.1724 -1.52212,0.25268 l 1.6297,10.2732 c -0.82421,0.13128 -1.6516,0.25405 -2.48221,0.36768 z m 6.49664,-1.07642 c -1.30412,-1.69132 -2.5699,-3.40037 -3.79117,-5.12863 0.84549,-0.14321 1.68911,-0.29617 2.53091,-0.45807 1.27901,1.69706 2.59955,3.37552 3.95519,5.03694 -0.89455,0.19183 -1.79284,0.37537 -2.69493,0.54976 z m 5.17184,-1.1036 -2.86484,-12.25909 c 1.37363,-0.32273 2.74876,-0.66765 4.12572,-1.03058 0.79287,-0.20898 1.51604,-0.21569 2.17374,-0.0166 0.66083,0.19234 1.22845,0.55424 1.70185,1.08871 0.47802,0.533 0.83396,1.20276 1.0635,2.01093 0.22803,0.80288 0.27556,1.55428 0.13831,2.25511 -0.13721,0.70059 -0.45532,1.3081 -0.95621,1.81983 -0.49727,0.50475 -1.17084,0.87117 -2.01747,1.09294 -0.9204,0.24109 -1.84335,0.47511 -2.76891,0.70097 l -0.50571,-2.06889 c 0.78862,-0.19275 1.57589,-0.39164 2.36187,-0.59596 0.44289,-0.11513 0.78471,-0.29897 1.02449,-0.54957 0.24467,-0.25194 0.39563,-0.54962 0.4533,-0.89228 0.0625,-0.34403 0.0393,-0.71451 -0.0686,-1.11173 -0.11082,-0.40805 -0.27888,-0.74218 -0.50302,-1.00269 -0.22087,-0.26731 -0.49664,-0.44684 -0.82705,-0.53946 -0.33044,-0.0926 -0.71118,-0.082 -1.14349,0.0306 -0.50593,0.13183 -1.01191,0.26126 -1.51793,0.38809 l 2.52445,10.10325 c -0.79503,0.19778 -1.59301,0.39012 -2.39397,0.57637 z m 11.12021,-2.96845 -3.57229,-12.08452 c 1.29419,-0.38166 2.59043,-0.7735 3.88897,-1.17209 1.05012,-0.32267 2.09795,-0.65716 3.14384,-1.00251 l 0.6903,2.08416 c -1.05904,0.35009 -2.12065,0.68951 -3.18514,1.01734 -0.55899,0.17202 -1.11789,0.34284 -1.67673,0.51217 l 0.86067,2.83101 c 0.56362,-0.17119 1.12685,-0.34383 1.68972,-0.51764 0.95991,-0.29648 1.91693,-0.60184 2.87127,-0.91542 l 0.67258,2.04568 c -0.96589,0.31774 -1.93493,0.62741 -2.90733,0.92836 -0.56569,0.17512 -1.13208,0.34908 -1.69917,0.52162 l 0.89756,2.95234 c 0.57207,-0.17448 1.14297,-0.35034 1.71271,-0.52732 1.12303,-0.34856 2.24087,-0.70804 3.35386,-1.07747 l 0.69048,2.0841 c -1.1262,0.37418 -2.25787,0.73862 -3.39534,1.09236 -1.33708,0.41634 -2.68232,0.82677 -4.03596,1.22783 z m 10.38056,-3.32601 -4.14807,-11.87473 c 1.34577,-0.46961 2.68876,-0.95593 4.02969,-1.45692 0.77212,-0.28848 1.48872,-0.38094 2.15388,-0.27487 0.66964,0.1043 1.26187,0.38701 1.77656,0.85071 0.51709,0.45652 0.92963,1.07176 1.23405,1.84725 0.30448,0.77565 0.41834,1.5019 0.33813,2.18002 -0.0802,0.67789 -0.34956,1.27798 -0.80954,1.79821 -0.45722,0.51308 -1.09442,0.92407 -1.90979,1.22813 -0.93153,0.34737 -1.86565,0.68873 -2.8026,1.02347 l -0.71848,-2.01121 c 0.80687,-0.28824 1.61194,-0.58161 2.41536,-0.87971 0.42753,-0.15863 0.75496,-0.35663 0.98177,-0.59242 0.23155,-0.23762 0.36585,-0.51135 0.40326,-0.8206 0.0421,-0.31111 -0.0115,-0.66107 -0.15982,-1.05031 -0.15033,-0.39441 -0.3453,-0.69661 -0.58402,-0.90684 -0.23614,-0.2173 -0.51847,-0.34186 -0.847,-0.37437 -0.3306,-0.0378 -0.70533,0.0217 -1.12547,0.17767 -0.4917,0.1825 -0.9838,0.36308 -1.47636,0.54165 l 3.54437,9.77722 c -0.76293,0.27655 -1.5282,0.5492 -2.29592,0.81765 z m 6.01701,-2.20294 c -1.55477,-1.44882 -3.09184,-2.90964 -4.60838,-4.38401 0.80255,-0.29574 1.6033,-0.59618 2.40239,-0.90093 1.55192,1.45022 3.12303,2.88762 4.71035,4.31382 -0.83223,0.32759 -1.66697,0.65144 -2.50436,0.97112 z m 4.81124,-1.89096 -4.71962,-11.66724 c 0.71477,-0.28974 1.42927,-0.58278 2.14359,-0.87881 l 3.97136,9.60362 c 1.50198,-0.62026 2.99759,-1.25094 4.48775,-1.88941 l 0.86652,2.01997 c -2.23408,0.9566 -4.48294,1.89678 -6.7496,2.81187 z m 11.34051,-4.80667 c -0.78332,0.3448 -1.56824,0.6883 -2.35488,1.03011 -0.47612,-4.37219 -0.98679,-8.73665 -1.51826,-13.09666 0.92461,-0.41015 1.84979,-0.82287 2.77576,-1.23748 2.8864,3.31106 5.78873,6.61297 8.69421,9.91169 -0.7721,0.34819 -1.54535,0.69633 -2.31988,1.04403 -2.19037,-2.57133 -4.37579,-5.14606 -6.55101,-7.72659 -0.0275,0.0122 -0.0549,0.0245 -0.0823,0.0367 0.46424,3.34317 0.91824,6.68878 1.35639,10.0382 z m -2.13708,-4.47433 c 1.83771,-0.80914 3.67067,-1.62717 5.50066,-2.44899 l 0.85257,1.8984 c -1.83289,0.8231 -3.67052,1.64301 -5.51465,2.45465 z m 12.00861,0.0549 -5.1857,-11.48699 c 1.36562,-0.6159 2.734,-1.23286 4.10587,-1.84876 0.75501,-0.33897 1.44334,-0.4958 2.06365,-0.47055 0.62035,0.0252 1.15634,0.20274 1.6076,0.53218 0.45591,0.32742 0.81198,0.77938 1.0689,1.35574 0.19955,0.44767 0.29214,0.87825 0.27812,1.2916 -0.009,0.41132 -0.1059,0.78756 -0.28937,1.12876 -0.17888,0.33917 -0.42755,0.63258 -0.74615,0.88037 l 0.0519,0.11571 c 0.39908,-0.15418 0.82138,-0.19499 1.2665,-0.12236 0.44514,0.0726 0.86485,0.26787 1.25906,0.58558 0.39653,0.31055 0.72047,0.74899 0.97248,1.31513 0.27031,0.60726 0.37834,1.21298 0.32481,1.81683 -0.0512,0.5967 -0.27444,1.15023 -0.66973,1.66097 -0.39762,0.50564 -0.9791,0.93072 -1.74564,1.27605 -1.45104,0.65372 -2.90483,1.31116 -4.36227,1.96974 z m 1.26247,-2.95557 c 0.59031,-0.26652 1.18028,-0.5327 1.76998,-0.79838 0.59881,-0.26979 0.97621,-0.59708 1.13274,-0.98252 0.16109,-0.38746 0.14496,-0.79721 -0.0487,-1.22916 -0.14292,-0.31884 -0.33718,-0.56832 -0.58294,-0.74837 -0.24347,-0.18724 -0.52236,-0.29372 -0.83665,-0.31935 -0.3143,-0.0256 -0.64561,0.0399 -0.9938,0.19657 -0.60704,0.27318 -1.21405,0.5468 -1.8211,0.82065 z m -2.1176,-4.69491 c 0.53638,-0.24187 1.07286,-0.4836 1.60948,-0.72505 0.29813,-0.13415 0.53529,-0.31184 0.71157,-0.53315 0.18087,-0.22337 0.28944,-0.47288 0.32566,-0.74858 0.0339,-0.28082 -0.0171,-0.57294 -0.15324,-0.87632 -0.18457,-0.41136 -0.46437,-0.6843 -0.83966,-0.81869 -0.37297,-0.14157 -0.80101,-0.10396 -1.28357,0.11295 -0.55148,0.24789 -1.10257,0.49599 -1.65331,0.74415 z"
       id="text4"
       style="font-weight:bold;font-size:17.3058px;line-height:0;font-family:'Inter Tight';-inkscape-font-specification:'Inter Tight Bold';letter-spacing:1.8542px;word-spacing:0px;display:inline;opacity:1;fill:#171717;fill-opacity:1;stroke-width:0.231774"
       aria-label="KARPERLAB"
       inkscape:path-effect="#path-effect9"
       inkscape:original-d="M 88.362845,110.84917 V 98.258522 h 2.653331 v 5.551718 h 0.169002 l 4.529252,-5.551718 h 3.185687 l -4.664454,5.636218 4.723604,6.95443 h -3.185686 l -3.44764,-5.17146 -1.309765,1.59707 v 3.57439 z m 15.391255,0 h -2.84768 l 4.34335,-12.590648 h 3.43074 l 4.3349,12.590648 h -2.83923 l -3.16034,-9.71762 h -0.1014 z m -0.169,-4.95176 h 6.73473 v 2.07872 h -6.73473 z m 12.22247,4.95176 V 98.258522 h 4.96021 q 1.42806,0 2.43362,0.507006 1.01402,0.507005 1.54637,1.436512 0.54081,0.92106 0.54081,2.17168 0,1.25061 -0.54081,2.15477 -0.5408,0.90416 -1.57172,1.38582 -1.02246,0.47321 -2.47588,0.47321 h -3.32088 v -2.13788 h 2.88993 q 0.76896,0 1.26751,-0.21125 0.50701,-0.21125 0.75206,-0.62531 0.25351,-0.41405 0.25351,-1.03936 0,-0.63376 -0.25351,-1.05626 -0.24505,-0.43096 -0.75206,-0.65066 -0.507,-0.22815 -1.27596,-0.22815 h -1.79987 v 10.41052 z m 6.98823,0 -3.06739,-5.72917 h 2.87304 l 3.13498,5.72917 z m 5.66519,0 V 98.258522 h 4.96021 q 1.42807,0 2.43363,0.549256 1.01401,0.540806 1.54637,1.504122 0.5408,0.96331 0.5408,2.22237 0,1.25062 -0.5408,2.20548 -0.54081,0.95486 -1.57172,1.49566 -1.02246,0.53236 -2.47588,0.53236 h -3.16034 v -2.12942 h 2.72938 q 0.76896,0 1.26752,-0.27041 0.50701,-0.2704 0.75206,-0.74361 0.2535,-0.4732 0.2535,-1.09006 0,-0.63376 -0.2535,-1.09851 -0.24505,-0.47321 -0.75206,-0.73516 -0.50701,-0.26195 -1.27597,-0.26195 h -1.79987 v 10.41052 z m 12.49288,0 V 98.258522 h 8.4839 v 2.197028 h -5.83057 v 2.95753 h 5.39116 v 2.15478 h -5.39116 v 3.08428 h 5.84747 v 2.19703 z m 11.88446,0 V 98.258522 h 4.96021 q 1.42807,0 2.43363,0.507006 1.01401,0.507005 1.54636,1.436512 0.54081,0.92106 0.54081,2.17168 0,1.25061 -0.54081,2.15477 -0.5408,0.90416 -1.57171,1.38582 -1.02247,0.47321 -2.47588,0.47321 h -3.32089 v -2.13788 h 2.88993 q 0.76896,0 1.26752,-0.21125 0.507,-0.21125 0.75206,-0.62531 0.2535,-0.41405 0.2535,-1.03936 0,-0.63376 -0.2535,-1.05626 -0.24506,-0.43096 -0.75206,-0.65066 -0.50701,-0.22815 -1.27597,-0.22815 h -1.79987 v 10.41052 z m 6.98823,0 -3.06738,-5.72917 h 2.87303 l 3.13499,5.72917 z m 5.6652,0 V 98.258522 h 2.65333 v 10.393618 h 5.39961 v 2.19703 z m 13.5931,0 h -2.84768 l 4.34335,-12.590648 h 3.43074 l 4.3349,12.590648 h -2.83923 l -3.16034,-9.71762 h -0.1014 z m -0.169,-4.95176 h 6.73473 v 2.07872 h -6.73473 z m 12.22247,4.95176 V 98.258522 h 5.03626 q 1.38581,0 2.31532,0.414055 0.92951,0.414054 1.39427,1.140763 0.4732,0.72671 0.4732,1.67312 0,0.73516 -0.3042,1.29286 -0.29575,0.55771 -0.81121,0.91261 -0.50701,0.35491 -1.16611,0.49856 v 0.12675 q 0.71826,0.0338 1.35201,0.40561 0.63376,0.3718 1.02246,1.04781 0.39716,0.66756 0.39716,1.59707 0,0.99711 -0.49856,1.79142 -0.4901,0.78586 -1.45341,1.24216 -0.96331,0.44786 -2.38293,0.44786 z m 2.65333,-2.17168 h 2.18012 q 1.10697,0 1.61397,-0.43095 0.51546,-0.43096 0.51546,-1.14077 0,-0.5239 -0.25351,-0.92106 -0.24505,-0.4056 -0.7098,-0.63375 -0.46476,-0.22816 -1.10697,-0.22816 h -2.23927 z m 0,-5.14611 h 1.97732 q 0.54926,0 0.97176,-0.19435 0.43096,-0.19435 0.67601,-0.54926 0.24505,-0.36335 0.24505,-0.86191 0,-0.676 -0.48165,-1.09006 -0.47321,-0.4225 -1.36047,-0.4225 h -2.02802 z"
       transform="translate(-1.5875,-4.2333335)" /></g></svg>
